<svg id="Layer_1" data-name="Layer 1" xmlns="http://www.w3.org/2000/svg" viewBox="0 0 825.72 842.39"><defs><style>.cls-1{fill:#fff;}.cls-2{fill:#fff;}.cls-3{fill:#fff;}</style></defs><title>Untitled-2</title><path class="cls-1" d="M1120.55,129.8c39.92-.24,73.32,28.54,77.9,69.34,4.15,36.85-17.91,72.34-58,83.08-3.92,1-5.68,2.88-7.12,6.28q-69.7,164.07-139.65,328c-2.06,4.82-.51,6.07,3.55,7.76,28.8,12,57.5,24.3,86.25,36.46,20.71,8.76,26.36,22.53,17.66,43.31-2.75,6.57-5.51,13.15-8.33,19.7-8.23,19.11-22.72,25-41.86,17q-44.84-18.93-89.6-38.06-26.46-11.25-52.91-22.55c-20.46-8.7-26.26-22.79-17.53-43.32Q972,446.08,1053.26,255.45c1.93-4.52,1.62-7.86-.62-12.08A77,77,0,0,1,1120.55,129.8Zm.37,119a41.54,41.54,0,0,0,41.75-41.54c0-23.39-18.13-41.82-41.32-41.92s-42.2,18.32-42.17,41.17C1079.21,230.43,1097.33,248.79,1120.92,248.78Z" transform="translate(-373.23 -123)"/><path class="cls-2" d="M1118.05,965.38a77.39,77.39,0,0,1-76.89-62.57c-.91-4.77-3.92-5.75-7.22-7.14q-107.62-45.18-215.25-90.31c-36-15.13-72.1-30.21-108-45.58-5.33-2.28-7.64-2.1-10.07,3.87-11.67,28.68-23.84,57.16-36,85.65-8.62,20.2-23.27,25.88-43.54,17.15-6.55-2.82-13.09-5.64-19.66-8.4-18.06-7.59-24.5-22.5-17-40.79,8.83-21.61,18.13-43,27.17-64.57q16.56-39.42,33.05-78.88c8.48-20.19,23.15-26,43.43-17.51Q879.93,737,1071.81,817.77c4,1.67,7.28,2.47,11.68.32,44.73-21.91,98.19,3.8,109.31,52.35A77.55,77.55,0,0,1,1118.05,965.38Zm-.23-35.84a41.72,41.72,0,0,0-.17-83.43,42.13,42.13,0,0,0-42.6,42.56C1075.31,911.22,1094.63,929.68,1117.82,929.54Z" transform="translate(-373.23 -123)"/><path class="cls-1" d="M373.29,886.71c.55-35.36,19.62-62.91,50.33-74.87a12.05,12.05,0,0,0,7.52-7.22q68.53-165.24,137.42-330.33c2.29-5.47,1-7.16-4.07-9.21-29.37-11.91-58.61-24.12-87.85-36.35-13.83-5.78-20.71-16-20.58-29.14,0-2.91,1.21-5.14,2.22-7.54,4.18-10,8.19-20,12.79-29.8,6.85-14.55,21.49-20.33,36.39-14.22q75,30.75,149.77,61.89c16.56,6.9,22,22.59,14.58,40.53q-52,125.24-104.08,250.44Q540.88,765.47,514,830c-1.8,4.3-1.46,7.32,1.18,11.37,18,27.63,18.46,56.16,1.23,84-16.63,26.86-42,39.17-73.25,36-31.89-3.27-53.7-21.19-65.22-51.27C374.69,901.7,372.86,893.08,373.29,886.71ZM409,884.84a41.88,41.88,0,0,0,42.31,41.28,42.34,42.34,0,0,0,41.58-43.67c-.51-21.94-20.32-40.5-42.88-40.16C427.24,842.63,408.57,862,409,884.84Z" transform="translate(-373.23 -123)"/><path class="cls-2" d="M450.59,123.09c38,.14,69.68,26.23,76.94,62.49.86,4.3,2.68,6.64,6.77,8.39q160.76,68.86,321.36,138.11c5.31,2.28,7.58,2.24,10.07-3.78,11.73-28.39,24.08-56.53,36.21-84.76,8.79-20.44,22.85-26.11,43.32-17.46,7.25,3.06,14.53,6,21.7,9.26,16.73,7.54,22.8,22.72,15.57,39.59-20.4,47.65-41.35,95.06-61.27,142.91-9.18,22.05-27.9,25-45.46,17.35C749.22,380.07,622.32,325.64,495.57,270.9c-3.92-1.69-7.19-1.86-11.11,0-47.07,22.47-103.64-7.6-110.21-62.5-4.62-38.68,23.44-76.21,63.06-83.78C442.13,123.72,447,122.68,450.59,123.09Zm42.72,78.72c.31-23.62-18-42.78-41.14-43a41.91,41.91,0,1,0,41.14,43Z" transform="translate(-373.23 -123)"/><path class="cls-1" d="M692.3,140.72c2.32.78,5.42,1.59,8.32,2.83q85,36.48,170,73.06c10.81,4.66,13.39,11.39,8.67,22.44q-10.27,24.07-20.8,48c-5.07,11.51-11.24,13.93-23,8.89q-84.64-36.47-169.21-73.08c-11.68-5.05-14.19-11.19-9.28-22.77,7.06-16.63,14.45-33.12,21.49-49.75C681.06,144.49,685.49,141.76,692.3,140.72Z" transform="translate(-373.23 -123)"/><path class="cls-1" d="M912.73,882.3c-.54,1.73-1.15,4.37-2.17,6.85q-10,24.15-20.24,48.23c-4.92,11.58-11.26,14.15-22.8,9.3q-84.22-35.4-168.41-70.88c-14-5.88-16.14-11.3-10.24-25.18,6.53-15.37,13-30.76,19.65-46.08,5-11.46,10.83-13.95,22.14-9.21q85.61,35.89,171.2,71.85C908.37,869.91,912.47,874.05,912.73,882.3Z" transform="translate(-373.23 -123)"/><path class="cls-2" d="M1098,638.62c-2,.06-4.78-.88-7.52-2.06-15.59-6.68-31.2-13.28-46.78-20-12.24-5.25-14.88-11.6-9.69-23.83q35.84-84.49,71.8-168.93c4.91-11.54,11.55-14.28,22.86-9.51q23.77,10,47.47,20.23c11.58,5,14.17,11.26,9.26,22.81q-36.06,84.79-72.18,169.57C1110.46,633.4,1107,638.76,1098,638.62Z" transform="translate(-373.23 -123)"/><path class="cls-2" d="M469.13,452.13a52.42,52.42,0,0,1,6.62,2q24.56,10.1,49,20.41c10.63,4.48,13.36,10.48,9,21q-35.81,86.52-71.86,172.93c-4.13,9.89-10.7,12.53-20.82,8.47q-25-10-49.75-20.52c-10.35-4.4-13.14-11-8.89-21.28Q418.12,549,454,462.91C456.46,457,459.74,451.86,469.13,452.13Z" transform="translate(-373.23 -123)"/><path class="cls-3" d="M1120.92,248.78c-23.59,0-41.71-18.35-41.74-42.29,0-22.85,18.84-41.26,42.17-41.17s41.36,18.53,41.32,41.92A41.54,41.54,0,0,1,1120.92,248.78Z" transform="translate(-373.23 -123)"/><path class="cls-3" d="M1117.82,929.54c-23.19.14-42.51-18.32-42.77-40.87a42,42,0,0,1,84.08-1.25A41.64,41.64,0,0,1,1117.82,929.54Z" transform="translate(-373.23 -123)"/><path class="cls-3" d="M409,884.84c-.45-22.84,18.22-42.21,41-42.55,22.56-.34,42.37,18.22,42.88,40.16a42.34,42.34,0,0,1-41.58,43.67A41.88,41.88,0,0,1,409,884.84Z" transform="translate(-373.23 -123)"/><path class="cls-3" d="M493.31,201.81a41.71,41.71,0,1,1-41.14-43C475.27,159,493.62,178.19,493.31,201.81Z" transform="translate(-373.23 -123)"/></svg>